<svg xmlns="http://www.w3.org/2000/svg" viewBox="0 0 293.23 293.23"><defs><style>.cls-1{fill:#1e1e1e;}</style></defs><title>logo-icon</title><g id="图层_2" data-name="图层 2"><g id="导出用"><circle class="cls-1" cx="146.62" cy="146.62" r="48.87"/><path class="cls-1" d="M48.87,195.49A48.88,48.88,0,1,0,0,146.62,48.87,48.87,0,0,1,48.87,195.49Z"/><path class="cls-1" d="M244.36,97.74a48.88,48.88,0,1,0,48.87,48.88A48.87,48.87,0,0,1,244.36,97.74Z"/><path class="cls-1" d="M48.87,195.49a48.87,48.87,0,1,0,48.87,48.87A48.87,48.87,0,0,1,48.87,195.49Z"/><path class="cls-1" d="M244.36,195.49a48.87,48.87,0,1,0,48.87,48.87A48.87,48.87,0,0,1,244.36,195.49Z"/><path class="cls-1" d="M146.62,195.49a48.87,48.87,0,0,1-48.88,48.87,48.88,48.88,0,1,0,48.88-48.87Z"/><path class="cls-1" d="M48.87,97.74A48.87,48.87,0,1,0,0,48.87,48.87,48.87,0,0,1,48.87,97.74Z"/><path class="cls-1" d="M146.62,97.74a48.87,48.87,0,0,1,48.87-48.87,48.88,48.88,0,1,0-48.87,48.87Z"/><path class="cls-1" d="M244.36,97.74a48.87,48.87,0,1,0-48.87-48.87A48.87,48.87,0,0,1,244.36,97.74Z"/></g></g></svg>