<svg xmlns="http://www.w3.org/2000/svg" viewBox="0 0 378.34 379.79"><defs><style>.cls-1{fill:#0e6cb2;}.cls-2{fill:#e92b8b;}.cls-3{fill:#ffcf17;}.cls-4{fill:#1e1e1e;}</style></defs><title>logo-color</title><g id="图层_2" data-name="图层 2"><g id="图层_1-2" data-name="图层 1"><circle class="cls-1" cx="188.75" cy="152.33" r="50.78"/><path class="cls-2" d="M87.2,203.11a50.78,50.78,0,1,0-50.78-50.78A50.77,50.77,0,0,1,87.2,203.11Z"/><path class="cls-3" d="M290.3,101.55a50.78,50.78,0,1,0,50.78,50.78A50.78,50.78,0,0,1,290.3,101.55Z"/><path class="cls-3" d="M87.2,203.11A50.78,50.78,0,1,0,138,253.88,50.77,50.77,0,0,1,87.2,203.11Z"/><path class="cls-1" d="M290.3,203.11a50.78,50.78,0,1,0,50.78,50.77A50.78,50.78,0,0,1,290.3,203.11Z"/><path class="cls-2" d="M188.75,203.11A50.77,50.77,0,0,1,138,253.88a50.78,50.78,0,1,0,50.77-50.77Z"/><path class="cls-1" d="M87.2,101.55A50.78,50.78,0,1,0,36.42,50.78,50.77,50.77,0,0,1,87.2,101.55Z"/><path class="cls-3" d="M188.75,101.55a50.78,50.78,0,0,1,50.78-50.77,50.78,50.78,0,1,0-50.78,50.77Z"/><path class="cls-2" d="M290.31,101.55a50.78,50.78,0,1,0-50.78-50.77A50.78,50.78,0,0,1,290.31,101.55Z"/><path class="cls-4" d="M0,347H6.4v13a42.89,42.89,0,0,1,15-3c7.78,0,12.25,3,12.25,10.35v11.9H27.28v-11c0-3.87-2.45-5.89-8-5.89A47.39,47.39,0,0,0,6.4,364.67v14.56H0Z"/><path class="cls-4" d="M69.84,373.43l1.33,4.69a74.39,74.39,0,0,1-15.72,1.67c-12.08,0-17.66-3.18-17.66-11.43S44,357,54.85,357c10.09,0,16.93,2.62,16.93,10a25,25,0,0,1-.18,2.92H44.1c.69,3.91,4,4.77,11.91,4.77A77.57,77.57,0,0,0,69.84,373.43Zm-25.74-7H65.46c-.43-3.52-2.84-5.11-10.83-5.11C47.71,361.36,44.71,362.65,44.1,366.47Zm21.57-19-7.9,6.15H51.49l6.11-6.15Z"/><path class="cls-4" d="M76.35,379.23v-29.3h28.7c7.22,0,11.73,2.62,11.73,9.88,0,6.32-3.61,9.37-10.27,9.75l-2.62.05,2.49,1.63,10,8h-8.72L96.33,370H83.23v9.28Zm6.88-14.48h21.22c3.74,0,5.24-1.24,5.24-4.42s-1.5-4.51-5.24-4.51H83.23Z"/><path class="cls-4" d="M151.65,373.43l1.33,4.69a74.39,74.39,0,0,1-15.72,1.67c-12.07,0-17.66-3.18-17.66-11.43S125.79,357,136.66,357c10.09,0,16.93,2.62,16.93,10a25,25,0,0,1-.18,2.92H125.92c.68,3.91,4,4.77,11.9,4.77A77.57,77.57,0,0,0,151.65,373.43Zm-25.73-7h21.35c-.43-3.52-2.84-5.11-10.83-5.11C129.52,361.36,126.52,362.65,125.92,366.47Z"/><path class="cls-4" d="M178.36,379.75a101.81,101.81,0,0,1-20.46-2.19l1-5.55a103.08,103.08,0,0,0,21.23,2.32c8.55,0,10.14-.9,10.14-3.3,0-2.58-1.51-3-4.56-3.27l-16.45-1.2c-8.3-.52-11.82-2.93-11.82-8.34,0-6.32,5.29-8.81,18.69-8.81a106.39,106.39,0,0,1,19.29,2l-1.11,5.24a114.53,114.53,0,0,0-19.72-1.8c-9.07,0-10.62.77-10.62,3.18s1.64,2.66,4.94,3l16.16,1.21c7.78.51,11.73,2.88,11.73,9S192.66,379.75,178.36,379.75Z"/><path class="cls-4" d="M219.37,356.93c12.76,0,18.78,3.52,18.78,11.43s-6,11.39-18.78,11.39-18.73-3.53-18.73-11.39S206.65,356.93,219.37,356.93Zm0,17.4c9.45,0,12.37-1.71,12.37-6s-2.92-6-12.37-6-12.33,1.72-12.33,6S210,374.33,219.37,374.33Z"/><path class="cls-4" d="M242.72,357.53h5.63l.43,2.8A41.67,41.67,0,0,1,264.12,357c7.82,0,12.29,3,12.29,10.35v11.9H270v-11c0-3.87-2.45-5.89-7.95-5.89a47.33,47.33,0,0,0-12.93,2.28v14.56h-6.41Z"/><path class="cls-4" d="M314.84,379.23h-5.63L308.7,376a38.67,38.67,0,0,1-15.3,3.69c-8,0-12.89-3.18-12.89-11.13,0-8.68,6.62-11.43,16.37-11.43a115,115,0,0,1,18,1.47Zm-20.23-4.9a44.64,44.64,0,0,0,13.79-2.66V363a112,112,0,0,0-12.16-.73c-6,0-9.33,1.64-9.33,6S289.19,374.33,294.61,374.33Z"/><path class="cls-4" d="M320,357.53h5.63l.51,4A33.83,33.83,0,0,1,342.41,357v5.8a39,39,0,0,0-16,3.13v13.32H320Z"/><path class="cls-4" d="M376.41,373.43l1.33,4.69A74.49,74.49,0,0,1,362,379.79c-12.07,0-17.66-3.18-17.66-11.43S350.54,357,361.41,357c10.1,0,16.93,2.62,16.93,10a27.73,27.73,0,0,1-.17,2.92h-27.5c.69,3.91,4,4.77,11.9,4.77A77.82,77.82,0,0,0,376.41,373.43Zm-25.74-7H372c-.43-3.52-2.83-5.11-10.82-5.11C354.28,361.36,351.27,362.65,350.67,366.47Z"/></g></g></svg>