<svg xmlns="http://www.w3.org/2000/svg" viewBox="0 0 304.66 304.66"><defs><style>.cls-1{fill:#0e6cb2;}.cls-2{fill:#e92b8b;}.cls-3{fill:#ffcf17;}</style></defs><title>logo-color0</title><g id="图层_2" data-name="图层 2"><g id="图层_1-2" data-name="图层 1"><circle class="cls-1" cx="152.33" cy="152.33" r="50.78"/><path class="cls-2" d="M50.78,203.11A50.78,50.78,0,1,0,0,152.33,50.78,50.78,0,0,1,50.78,203.11Z"/><path class="cls-3" d="M253.88,101.55a50.78,50.78,0,1,0,50.78,50.78A50.77,50.77,0,0,1,253.88,101.55Z"/><path class="cls-3" d="M50.78,203.11a50.78,50.78,0,1,0,50.77,50.77A50.77,50.77,0,0,1,50.78,203.11Z"/><path class="cls-1" d="M253.88,203.11a50.78,50.78,0,1,0,50.78,50.77A50.77,50.77,0,0,1,253.88,203.11Z"/><path class="cls-2" d="M152.33,203.11a50.77,50.77,0,0,1-50.78,50.77,50.78,50.78,0,1,0,50.78-50.77Z"/><path class="cls-1" d="M50.78,101.55A50.78,50.78,0,1,0,0,50.78,50.78,50.78,0,0,1,50.78,101.55Z"/><path class="cls-3" d="M152.33,101.55a50.77,50.77,0,0,1,50.78-50.77,50.78,50.78,0,1,0-50.78,50.77Z"/><path class="cls-2" d="M253.88,101.55a50.78,50.78,0,1,0-50.77-50.77A50.77,50.77,0,0,1,253.88,101.55Z"/></g></g></svg>