<svg xmlns="http://www.w3.org/2000/svg" viewBox="0 0 1091.82 156.37"><defs><style>.cls-1{fill:#1e1e1e;}</style></defs><title>logo-long</title><g id="图层_2" data-name="图层 2"><g id="图层_1-2" data-name="图层 1"><circle class="cls-1" cx="78.18" cy="78.18" r="26.06"/><path class="cls-1" d="M26.06,104.25A26.07,26.07,0,1,0,0,78.18,26.07,26.07,0,0,1,26.06,104.25Z"/><path class="cls-1" d="M130.31,52.12a26.07,26.07,0,1,0,26.06,26.06A26.05,26.05,0,0,1,130.31,52.12Z"/><path class="cls-1" d="M26.06,104.25a26.06,26.06,0,1,0,26.06,26.06A26.06,26.06,0,0,1,26.06,104.25Z"/><path class="cls-1" d="M130.31,104.25a26.06,26.06,0,1,0,26.06,26.06A26.06,26.06,0,0,1,130.31,104.25Z"/><path class="cls-1" d="M78.18,104.25a26.06,26.06,0,0,1-26.06,26.06,26.06,26.06,0,1,0,26.06-26.06Z"/><path class="cls-1" d="M26.06,52.12A26.06,26.06,0,1,0,0,26.06,26.06,26.06,0,0,1,26.06,52.12Z"/><path class="cls-1" d="M78.18,52.12a26.06,26.06,0,0,1,26.06-26.06A26.06,26.06,0,1,0,78.18,52.12Z"/><path class="cls-1" d="M130.31,52.12a26.06,26.06,0,1,0-26.07-26.06A26.07,26.07,0,0,1,130.31,52.12Z"/><path class="cls-1" d="M207.16,39.85h15V70.29c10.25-3.91,22.61-7.13,35.17-7.13,18.19,0,28.63,6.94,28.63,24.21v27.84H271V89.58c0-9-5.72-13.76-18.58-13.76-8.34,0-18.69,1.91-30.25,5.33v34.06h-15Z"/><path class="cls-1" d="M370.47,101.64l3.12,11c-9,2.2-23.71,3.91-36.77,3.91-28.23,0-41.29-7.43-41.29-26.72,0-19,14.46-26.63,39.88-26.63C359,63.16,375,69.3,375,86.57a60.85,60.85,0,0,1-.41,6.83H310.3c1.6,9.15,9.34,11.15,27.83,11.15A181.27,181.27,0,0,0,370.47,101.64ZM310.3,85.37h49.93c-1-8.24-6.63-12-25.32-12C318.73,73.41,311.7,76.43,310.3,85.37Zm50.43-44.31L342.24,55.43H327.57l14.27-14.37Z"/><path class="cls-1" d="M385.7,115.21V46.68h67.11c16.88,0,27.42,6.13,27.42,23.11,0,14.77-8.43,21.9-24,22.81l-6.13.1,5.83,3.82,23.31,18.69h-20.4L432.41,93.5H401.77v21.71Zm16.07-33.86H451.4c8.74,0,12.26-2.92,12.26-10.35,0-7.73-3.52-10.55-12.26-10.55H401.77Z"/><path class="cls-1" d="M561.77,101.64l3.11,11c-9,2.2-23.7,3.91-36.77,3.91-28.23,0-41.29-7.43-41.29-26.72,0-19,14.47-26.63,39.89-26.63,23.6,0,39.58,6.14,39.58,23.41a61.16,61.16,0,0,1-.4,6.83h-64.3c1.6,9.15,9.34,11.15,27.83,11.15A181.41,181.41,0,0,0,561.77,101.64ZM501.59,85.37h49.94c-1-8.24-6.64-12-25.32-12C510,73.41,503,76.43,501.59,85.37Z"/><path class="cls-1" d="M624.21,116.41c-16.28,0-35.77-2.31-47.82-5.12l2.31-13a241.87,241.87,0,0,0,49.63,5.42c20,0,23.71-2.11,23.71-7.74,0-6-3.52-6.93-10.65-7.63l-38.48-2.81c-19.39-1.21-27.63-6.83-27.63-19.49,0-14.77,12.36-20.6,43.7-20.6A248.74,248.74,0,0,1,664.1,50.2l-2.62,12.26a265.46,265.46,0,0,0-46.11-4.22c-21.2,0-24.81,1.81-24.81,7.43,0,5.33,3.81,6.24,11.55,6.94l37.77,2.81c18.19,1.21,27.43,6.74,27.43,21C667.31,110.49,657.67,116.41,624.21,116.41Z"/><path class="cls-1" d="M720.11,63.06C750,63.06,764,71.3,764,89.79S750,116.41,720.11,116.41s-43.81-8.24-43.81-26.62S690.38,63.06,720.11,63.06Zm0,40.69c22.11,0,28.94-4,28.94-14s-6.83-14-28.94-14-28.84,4-28.84,14S698.11,103.75,720.11,103.75Z"/><path class="cls-1" d="M774.72,64.47h13.16l1,6.53c10.44-4.22,23-7.84,35.86-7.84,18.28,0,28.74,6.94,28.74,24.21v27.84h-15V89.58c0-9-5.73-13.76-18.59-13.76-8.34,0-18.69,1.91-30.24,5.33v34.06h-15Z"/><path class="cls-1" d="M943.35,115.21H930.19l-1.2-7.64c-10.45,4.62-22.91,8.64-35.77,8.64-18.69,0-30.14-7.43-30.14-26,0-20.3,15.47-26.73,38.27-26.73a271.57,271.57,0,0,1,42,3.42ZM896,103.75c10.14,0,21.09-2.51,32.24-6.22V77.33a260.46,260.46,0,0,0-28.43-1.71c-14,0-21.8,3.82-21.8,14.07S883.37,103.75,896,103.75Z"/><path class="cls-1" d="M955.46,64.47h13.16l1.21,9.34c10.34-5.73,23.4-10.65,38-10.65V76.72a90.8,90.8,0,0,0-37.37,7.34v31.15h-15Z"/><path class="cls-1" d="M1087.31,101.64l3.11,11c-9,2.2-23.71,3.91-36.78,3.91-28.23,0-41.28-7.43-41.28-26.72,0-19,14.46-26.63,39.88-26.63,23.61,0,39.58,6.14,39.58,23.41a58.84,58.84,0,0,1-.4,6.83h-64.3c1.61,9.15,9.34,11.15,27.83,11.15A181.66,181.66,0,0,0,1087.31,101.64Zm-60.19-16.27h49.94c-1-8.24-6.64-12-25.32-12C1035.56,73.41,1028.53,76.43,1027.12,85.37Z"/></g></g></svg>