<svg xmlns="http://www.w3.org/2000/svg" viewBox="0 0 290.42 291.53"><defs><style>.cls-1{fill:#fff;}</style></defs><title>logo-white</title><g id="图层_2" data-name="图层 2"><g id="图层_1-2" data-name="图层 1"><circle class="cls-1" cx="144.89" cy="116.93" r="38.98"/><path class="cls-1" d="M66.94,155.91a39,39,0,1,0-39-39A39,39,0,0,1,66.94,155.91Z"/><path class="cls-1" d="M222.84,78a39,39,0,1,0,39,39A39,39,0,0,1,222.84,78Z"/><path class="cls-1" d="M66.94,155.91a39,39,0,1,0,39,39A39,39,0,0,1,66.94,155.91Z"/><path class="cls-1" d="M222.84,155.91a39,39,0,1,0,39,39A39,39,0,0,1,222.84,155.91Z"/><path class="cls-1" d="M144.89,155.91a39,39,0,0,1-39,39,39,39,0,1,0,39-39Z"/><path class="cls-1" d="M66.94,78A39,39,0,1,0,28,39,39,39,0,0,1,66.94,78Z"/><path class="cls-1" d="M144.89,78a39,39,0,0,1,39-39,39,39,0,1,0-39,39Z"/><path class="cls-1" d="M222.84,78a39,39,0,1,0-39-39A39,39,0,0,1,222.84,78Z"/><path class="cls-1" d="M0,266.37H4.91v10A33.17,33.17,0,0,1,16.46,274c6,0,9.4,2.28,9.4,8v9.13H20.94v-8.41c0-3-1.88-4.51-6.1-4.51a36.68,36.68,0,0,0-9.93,1.74V291.1H0Z"/><path class="cls-1" d="M53.61,286.65l1,3.6a57.17,57.17,0,0,1-12.07,1.28c-9.27,0-13.55-2.44-13.55-8.77S33.76,274,42.1,274c7.75,0,13,2,13,7.68A19,19,0,0,1,55,284H33.85c.53,3,3.07,3.66,9.14,3.66A59.5,59.5,0,0,0,53.61,286.65Zm-19.76-5.34h16.4c-.33-2.71-2.18-3.93-8.31-3.93C36.63,277.38,34.32,278.37,33.85,281.31Zm16.56-14.55-6.07,4.72H39.53l4.68-4.72Z"/><path class="cls-1" d="M58.61,291.1V268.61h22c5.54,0,9,2,9,7.59,0,4.85-2.77,7.19-7.88,7.48l-2,0L81.66,285l7.65,6.13H82.62L73.94,284h-10v7.12ZM63.89,280H80.18c2.87,0,4-1,4-3.4s-1.15-3.46-4-3.46H63.89Z"/><path class="cls-1" d="M116.41,286.65l1,3.6a57.17,57.17,0,0,1-12.07,1.28c-9.27,0-13.55-2.44-13.55-8.77S96.56,274,104.9,274c7.75,0,13,2,13,7.68a19,19,0,0,1-.14,2.25H96.65c.53,3,3.07,3.66,9.14,3.66A59.5,59.5,0,0,0,116.41,286.65Zm-19.76-5.34h16.4c-.33-2.71-2.18-3.93-8.31-3.93C99.43,277.38,97.12,278.37,96.65,281.31Z"/><path class="cls-1" d="M136.91,291.5a78.2,78.2,0,0,1-15.7-1.68l.76-4.26a79.11,79.11,0,0,0,16.29,1.78c6.56,0,7.78-.69,7.78-2.54s-1.15-2.27-3.49-2.5l-12.63-.93c-6.37-.39-9.07-2.24-9.07-6.39,0-4.85,4.05-6.77,14.34-6.77A81.78,81.78,0,0,1,150,269.76l-.85,4A87.07,87.07,0,0,0,134,272.4c-7,0-8.15.6-8.15,2.44s1.25,2.05,3.79,2.28l12.4.92c6,.4,9,2.21,9,6.9S147.89,291.5,136.91,291.5Z"/><path class="cls-1" d="M168.39,274c9.8,0,14.42,2.7,14.42,8.77s-4.62,8.74-14.42,8.74S154,288.8,154,282.76,158.63,274,168.39,274Zm0,13.35c7.26,0,9.5-1.31,9.5-4.58s-2.24-4.58-9.5-4.58-9.46,1.31-9.46,4.58S161.17,287.34,168.39,287.34Z"/><path class="cls-1" d="M186.32,274.45h4.32l.33,2.14A32.15,32.15,0,0,1,202.74,274c6,0,9.44,2.28,9.44,8v9.13h-4.92v-8.41c0-3-1.88-4.51-6.1-4.51a36.68,36.68,0,0,0-9.93,1.74V291.1h-4.91Z"/><path class="cls-1" d="M241.68,291.1h-4.32l-.4-2.5a29.7,29.7,0,0,1-11.74,2.83c-6.13,0-9.89-2.44-9.89-8.54,0-6.66,5.08-8.77,12.56-8.77a89.52,89.52,0,0,1,13.79,1.12Zm-15.54-3.76a34.25,34.25,0,0,0,10.59-2v-6.63a85.8,85.8,0,0,0-9.33-.56c-4.59,0-7.16,1.25-7.16,4.62S222,287.34,226.14,287.34Z"/><path class="cls-1" d="M245.65,274.45H250l.4,3.06A26,26,0,0,1,262.84,274v4.45a29.9,29.9,0,0,0-12.27,2.41V291.1h-4.92Z"/><path class="cls-1" d="M288.94,286.65l1,3.6a57.33,57.33,0,0,1-12.07,1.28c-9.27,0-13.56-2.44-13.56-8.77s4.75-8.74,13.09-8.74c7.76,0,13,2,13,7.68a21.73,21.73,0,0,1-.13,2.25H269.18c.53,3,3.07,3.66,9.13,3.66A59.75,59.75,0,0,0,288.94,286.65Zm-19.76-5.34h16.39c-.33-2.71-2.18-3.93-8.31-3.93C272,277.38,269.64,278.37,269.18,281.31Z"/></g></g></svg>